<svg width="124" height="124" viewBox="0 0 124 124" fill="none" xmlns="http://www.w3.org/2000/svg">
<path d="M62.0005 8.37842C76.2219 8.37842 89.8607 14.0278 99.9167 24.0838C109.973 34.1398 115.622 47.7787 115.622 62C115.622 76.2214 109.973 89.8602 99.9167 99.9162C89.8607 109.972 76.2219 115.622 62.0005 115.622C47.7792 115.622 34.1403 109.972 24.0843 99.9162C14.0283 89.8602 8.37891 76.2214 8.37891 62C8.37891 47.7787 14.0283 34.1398 24.0843 24.0838C34.1403 14.0278 47.7792 8.37842 62.0005 8.37842ZM62.0005 15.0811C55.839 15.0811 49.7379 16.2947 44.0454 18.6526C38.353 21.0105 33.1807 24.4665 28.8238 28.8233C24.467 33.1802 21.011 38.3525 18.6531 44.0449C16.2952 49.7374 15.0816 55.8386 15.0816 62C15.0816 68.1615 16.2952 74.2627 18.6531 79.9551C21.011 85.6476 24.467 90.8199 28.8238 95.1767C33.1807 99.5335 38.353 102.99 44.0454 105.347C49.7379 107.705 55.839 108.919 62.0005 108.919C74.4442 108.919 86.3782 103.976 95.1772 95.1767C103.976 86.3777 108.919 74.4437 108.919 62C108.919 49.5564 103.976 37.6224 95.1772 28.8233C86.3782 20.0243 74.4442 15.0811 62.0005 15.0811ZM84.5082 46.2219C85.0634 46.7764 85.4063 47.5081 85.4774 48.2896C85.5484 49.071 85.343 49.8526 84.8969 50.4982L84.5082 50.9674L57.6706 77.805C57.1161 78.3602 56.3843 78.7032 55.6029 78.7742C54.8214 78.8452 54.0398 78.6398 53.3942 78.1938L52.9251 77.805L39.5197 64.3996C38.9259 63.8085 38.5751 63.0164 38.5364 62.1795C38.4976 61.3426 38.7738 60.5215 39.3104 59.8781C39.847 59.2346 40.6051 58.8155 41.4354 58.7034C42.2657 58.5912 43.1079 58.7941 43.796 59.272L44.2652 59.6608L55.2978 70.7001L79.7694 46.2219C80.3979 45.5936 81.2501 45.2406 82.1388 45.2406C83.0274 45.2406 83.8797 45.5936 84.5082 46.2219Z" fill="#32AA8D" stroke="#32AA8D" stroke-width="2"/>
</svg>
