<svg width="16" height="16" viewBox="0 0 16 16" fill="none" xmlns="http://www.w3.org/2000/svg">
<path d="M6.57101 3.42829H9.42815C9.42815 3.04941 9.27764 2.68605 9.00973 2.41814C8.74182 2.15023 8.37846 1.99972 7.99958 1.99972C7.6207 1.99972 7.25734 2.15023 6.98943 2.41814C6.72152 2.68605 6.57101 3.04941 6.57101 3.42829ZM5.71387 3.42829C5.71387 2.82208 5.95468 2.2407 6.38334 1.81205C6.81199 1.38339 7.39337 1.14258 7.99958 1.14258C8.60579 1.14258 9.18717 1.38339 9.61582 1.81205C10.0445 2.2407 10.2853 2.82208 10.2853 3.42829H13.8567C13.9704 3.42829 14.0794 3.47345 14.1598 3.55382C14.2401 3.63419 14.2853 3.7432 14.2853 3.85686C14.2853 3.97053 14.2401 4.07954 14.1598 4.15991C14.0794 4.24028 13.9704 4.28544 13.8567 4.28544H13.1082L12.4127 12.63C12.3621 13.2371 12.0853 13.8029 11.637 14.2154C11.1888 14.6279 10.6019 14.8568 9.99272 14.8569H6.00644C5.39729 14.8568 4.8104 14.6279 4.36216 14.2154C3.91391 13.8029 3.63703 13.2371 3.58644 12.63L2.89101 4.28544H2.14244C2.02877 4.28544 1.91977 4.24028 1.83939 4.15991C1.75902 4.07954 1.71387 3.97053 1.71387 3.85686C1.71387 3.7432 1.75902 3.63419 1.83939 3.55382C1.91977 3.47345 2.02877 3.42829 2.14244 3.42829H5.71387ZM7.14244 6.71401C7.14244 6.60034 7.09729 6.49133 7.01691 6.41096C6.93654 6.33059 6.82753 6.28544 6.71387 6.28544C6.6002 6.28544 6.49119 6.33059 6.41082 6.41096C6.33045 6.49133 6.2853 6.60034 6.2853 6.71401V11.5711C6.2853 11.6848 6.33045 11.7938 6.41082 11.8742C6.49119 11.9546 6.6002 11.9997 6.71387 11.9997C6.82753 11.9997 6.93654 11.9546 7.01691 11.8742C7.09729 11.7938 7.14244 11.6848 7.14244 11.5711V6.71401ZM9.2853 6.28544C9.17163 6.28544 9.06262 6.33059 8.98225 6.41096C8.90188 6.49133 8.85672 6.60034 8.85672 6.71401V11.5711C8.85672 11.6848 8.90188 11.7938 8.98225 11.8742C9.06262 11.9546 9.17163 11.9997 9.2853 11.9997C9.39896 11.9997 9.50797 11.9546 9.58834 11.8742C9.66871 11.7938 9.71387 11.6848 9.71387 11.5711V6.71401C9.71387 6.60034 9.66871 6.49133 9.58834 6.41096C9.50797 6.33059 9.39896 6.28544 9.2853 6.28544Z" fill="#3D5059"/>
</svg>
