<svg width="21" height="20" viewBox="0 0 21 20" fill="none" xmlns="http://www.w3.org/2000/svg">
<path d="M8.71401 4.28488H12.2854C12.2854 3.81128 12.0973 3.35707 11.7624 3.02219C11.4275 2.6873 10.9733 2.49916 10.4997 2.49916C10.0261 2.49916 9.57192 2.6873 9.23703 3.02219C8.90214 3.35707 8.71401 3.81128 8.71401 4.28488ZM7.64258 4.28488C7.64258 3.52712 7.9436 2.80039 8.47942 2.26457C9.01523 1.72875 9.74196 1.42773 10.4997 1.42773C11.2575 1.42773 11.9842 1.72875 12.52 2.26457C13.0558 2.80039 13.3569 3.52712 13.3569 4.28488H17.8211C17.9632 4.28488 18.0995 4.34132 18.2 4.44178C18.3004 4.54225 18.3569 4.67851 18.3569 4.82059C18.3569 4.96267 18.3004 5.09893 18.2 5.1994C18.0995 5.29987 17.9632 5.35631 17.8211 5.35631H16.8854L16.0161 15.787C15.9529 16.5458 15.6068 17.2532 15.0465 17.7687C14.4862 18.2843 13.7526 18.5705 12.9912 18.5706H8.00829C7.24686 18.5705 6.51325 18.2843 5.95294 17.7687C5.39263 17.2532 5.04654 16.5458 4.98329 15.787L4.11401 5.35631H3.17829C3.03621 5.35631 2.89995 5.29987 2.79949 5.1994C2.69902 5.09893 2.64258 4.96267 2.64258 4.82059C2.64258 4.67851 2.69902 4.54225 2.79949 4.44178C2.89995 4.34132 3.03621 4.28488 3.17829 4.28488H7.64258ZM9.42829 8.39202C9.42829 8.24994 9.37185 8.11368 9.27139 8.01321C9.17092 7.91275 9.03466 7.85631 8.89258 7.85631C8.7505 7.85631 8.61424 7.91275 8.51377 8.01321C8.41331 8.11368 8.35686 8.24994 8.35686 8.39202V14.4635C8.35686 14.6055 8.41331 14.7418 8.51377 14.8423C8.61424 14.9427 8.7505 14.9992 8.89258 14.9992C9.03466 14.9992 9.17092 14.9427 9.27139 14.8423C9.37185 14.7418 9.42829 14.6055 9.42829 14.4635V8.39202ZM12.1069 7.85631C11.9648 7.85631 11.8285 7.91275 11.7281 8.01321C11.6276 8.11368 11.5711 8.24994 11.5711 8.39202V14.4635C11.5711 14.6055 11.6276 14.7418 11.7281 14.8423C11.8285 14.9427 11.9648 14.9992 12.1069 14.9992C12.2489 14.9992 12.3852 14.9427 12.4857 14.8423C12.5861 14.7418 12.6426 14.6055 12.6426 14.4635V8.39202C12.6426 8.24994 12.5861 8.11368 12.4857 8.01321C12.3852 7.91275 12.2489 7.85631 12.1069 7.85631Z" fill="#DC5436"/>
</svg>
