<svg width="77" height="76" viewBox="0 0 77 76" fill="none" xmlns="http://www.w3.org/2000/svg">
<path d="M43.25 19C43.25 20.2598 42.7496 21.468 41.8588 22.3588C40.968 23.2496 39.7598 23.75 38.5 23.75C37.2402 23.75 36.032 23.2496 35.1412 22.3588C34.2504 21.468 33.75 20.2598 33.75 19C33.75 17.7402 34.2504 16.532 35.1412 15.6412C36.032 14.7504 37.2402 14.25 38.5 14.25C39.7598 14.25 40.968 14.7504 41.8588 15.6412C42.7496 16.532 43.25 17.7402 43.25 19ZM31.375 49.875C31.375 47.9853 32.1257 46.1731 33.4619 44.8369C34.7981 43.5007 36.6103 42.75 38.5 42.75C40.3897 42.75 42.2019 43.5007 43.5381 44.8369C44.8743 46.1731 45.625 47.9853 45.625 49.875C45.625 51.7647 44.8743 53.5769 43.5381 54.9131C42.2019 56.2493 40.3897 57 38.5 57C36.6103 57 34.7981 56.2493 33.4619 54.9131C32.1257 53.5769 31.375 51.7647 31.375 49.875Z" fill="#404040"/>
<path d="M19.5 0C16.9804 0 14.5641 1.00089 12.7825 2.78249C11.0009 4.56408 10 6.98044 10 9.5V66.5C10 69.0196 11.0009 71.4359 12.7825 73.2175C14.5641 74.9991 16.9804 76 19.5 76H57.5C60.0196 76 62.4359 74.9991 64.2175 73.2175C65.9991 71.4359 67 69.0196 67 66.5V9.5C67 6.98044 65.9991 4.56408 64.2175 2.78249C62.4359 1.00089 60.0196 0 57.5 0L19.5 0ZM48 19C48 21.5196 46.9991 23.9359 45.2175 25.7175C43.4359 27.4991 41.0196 28.5 38.5 28.5C35.9804 28.5 33.5641 27.4991 31.7825 25.7175C30.0009 23.9359 29 21.5196 29 19C29 16.4804 30.0009 14.0641 31.7825 12.2825C33.5641 10.5009 35.9804 9.5 38.5 9.5C41.0196 9.5 43.4359 10.5009 45.2175 12.2825C46.9991 14.0641 48 16.4804 48 19ZM38.5 33.25C42.9092 33.25 47.1379 35.0016 50.2556 38.1194C53.3734 41.2371 55.125 45.4658 55.125 49.875C55.125 54.2842 53.3734 58.5129 50.2556 61.6306C47.1379 64.7484 42.9092 66.5 38.5 66.5C34.0908 66.5 29.8621 64.7484 26.7444 61.6306C23.6266 58.5129 21.875 54.2842 21.875 49.875C21.875 45.4658 23.6266 41.2371 26.7444 38.1194C29.8621 35.0016 34.0908 33.25 38.5 33.25Z" fill="#404040"/>
</svg>
