<svg width="77" height="76" viewBox="0 0 77 76" fill="none" xmlns="http://www.w3.org/2000/svg">
<path d="M31.6474 6.44107C32.002 6.5614 32.3504 6.70707 32.6892 6.87174L36.752 8.87307C37.2959 9.14074 37.8939 9.27994 38.5 9.27994C39.1062 9.27994 39.7042 9.14074 40.248 8.87307L44.3109 6.87174C46.3828 5.85257 48.7748 5.69803 50.9607 6.44211C53.1466 7.18618 54.9475 8.76794 55.9674 10.8396L56.2017 11.3526L56.4012 11.8814L57.8579 16.1659C58.2537 17.3312 59.1689 18.2432 60.331 18.6391L64.6187 20.0957C65.7915 20.4948 66.8657 21.1395 67.7695 21.9867C68.6734 22.834 69.386 23.8644 69.8599 25.009C70.3337 26.1537 70.5579 27.3863 70.5175 28.6245C70.477 29.8627 70.1728 31.078 69.6252 32.1892L67.627 36.2521C67.3594 36.7959 67.2202 37.3939 67.2202 38.0001C67.2202 38.6062 67.3594 39.2042 67.627 39.7481L69.6252 43.8109C70.1722 44.922 70.476 46.137 70.5162 47.3749C70.5564 48.6127 70.3321 49.8449 69.8582 50.9891C69.3844 52.1334 68.672 53.1634 67.7684 54.0105C66.8649 54.8576 65.7911 55.5021 64.6187 55.9012L60.331 57.3579C59.7575 57.5536 59.2365 57.8783 58.8083 58.3071C58.38 58.7359 58.0559 59.2573 57.861 59.8311L56.4012 64.1187C56.0021 65.2912 55.3575 66.365 54.5104 67.2685C53.6634 68.172 52.6334 68.8845 51.4891 69.3583C50.3448 69.8321 49.1127 70.0564 47.8748 70.0162C46.637 69.976 45.422 69.6723 44.3109 69.1252L40.248 67.1271C39.7042 66.8594 39.1062 66.7202 38.5 66.7202C37.8939 66.7202 37.2959 66.8594 36.752 67.1271L32.6892 69.1252C31.5781 69.6723 30.363 69.976 29.1252 70.0162C27.8874 70.0564 26.6552 69.8321 25.5109 69.3583C24.3667 68.8845 23.3367 68.172 22.4896 67.2685C21.6425 66.365 20.998 65.2912 20.5989 64.1187L19.1422 59.8311C18.9462 59.2572 18.621 58.736 18.1916 58.3077C17.7623 57.8795 17.2402 57.5556 16.6659 57.3611L12.3814 55.9012C11.2087 55.5025 10.1345 54.8581 9.23065 54.0112C8.32679 53.1643 7.61399 52.1343 7.13984 50.99C6.6657 49.8457 6.44112 48.6134 6.4811 47.3754C6.52108 46.1375 6.8247 44.9222 7.37169 43.8109L9.37302 39.7481C9.64069 39.2042 9.77989 38.6062 9.77989 38.0001C9.77989 37.3939 9.64069 36.7959 9.37302 36.2521L7.37169 32.1892C6.8247 31.0779 6.52108 29.8627 6.4811 28.6247C6.44112 27.3867 6.6657 26.1544 7.13984 25.0101C7.61399 23.8658 8.32679 22.8358 9.23065 21.9889C10.1345 21.142 11.2087 20.4977 12.3814 20.0989L16.6659 18.6422C17.2403 18.4467 17.7622 18.1216 18.191 17.6923C18.6198 17.2629 18.9442 16.7406 19.139 16.1659L20.5957 11.8814C20.9639 10.7984 21.5419 9.79851 22.2967 8.93892C23.0514 8.07933 23.9681 7.37687 24.9944 6.87165C26.0207 6.36644 27.1365 6.06838 28.2781 5.9945C29.4196 5.92062 30.5645 6.07237 31.6474 6.44107V6.44107ZM49.4852 28.4019L32.325 45.5652L26.074 38.0602C25.8772 37.8122 25.6327 37.6059 25.355 37.4537C25.0773 37.3015 24.7719 37.2064 24.4569 37.174C24.1419 37.1415 23.8236 37.1724 23.5207 37.2648C23.2178 37.3572 22.9364 37.5092 22.6931 37.7119C22.4498 37.9147 22.2495 38.164 22.104 38.4453C21.9585 38.7266 21.8708 39.0341 21.8459 39.3498C21.821 39.6655 21.8595 39.983 21.9591 40.2836C22.0588 40.5842 22.2175 40.8619 22.426 41.1002L30.3427 50.6002C30.5538 50.8537 30.8153 51.0604 31.1107 51.2072C31.4061 51.354 31.7288 51.4376 32.0583 51.4528C32.3878 51.468 32.7168 51.4144 33.0244 51.2954C33.332 51.1764 33.6115 50.9947 33.845 50.7617L52.845 31.7617C53.0784 31.5443 53.2655 31.2821 53.3953 30.9908C53.5251 30.6994 53.5949 30.385 53.6006 30.0661C53.6062 29.7472 53.5475 29.4304 53.4281 29.1347C53.3086 28.839 53.1308 28.5703 52.9053 28.3448C52.6798 28.1193 52.4111 27.9415 52.1154 27.822C51.8197 27.7026 51.5029 27.6439 51.184 27.6495C50.8651 27.6552 50.5506 27.725 50.2593 27.8548C49.968 27.9846 49.7058 28.1717 49.4884 28.4051L49.4852 28.4019Z" fill="#404040"/>
</svg>
