<svg width="20" height="20" viewBox="0 0 20 20" fill="none" xmlns="http://www.w3.org/2000/svg">
<path fill-rule="evenodd" clip-rule="evenodd" d="M5.83329 1.66699C4.72822 1.66699 3.66842 2.10598 2.88701 2.88738C2.10561 3.66878 1.66663 4.72859 1.66663 5.83366V14.167C1.66663 15.2721 2.10561 16.3319 2.88701 17.1133C3.66842 17.8947 4.72822 18.3337 5.83329 18.3337H14.1666C15.2717 18.3337 16.3315 17.8947 17.1129 17.1133C17.8943 16.3319 18.3333 15.2721 18.3333 14.167V5.83366C18.3333 4.72859 17.8943 3.66878 17.1129 2.88738C16.3315 2.10598 15.2717 1.66699 14.1666 1.66699H5.83329ZM13.1083 8.90366C13.1831 8.82377 13.2415 8.72992 13.2801 8.62747C13.3187 8.52502 13.3367 8.41597 13.3332 8.30655C13.3296 8.19714 13.3045 8.08949 13.2594 7.98976C13.2142 7.89004 13.1498 7.80018 13.07 7.72533C12.9901 7.65047 12.8962 7.59209 12.7938 7.5535C12.6913 7.51492 12.5823 7.49689 12.4729 7.50045C12.3634 7.50401 12.2558 7.52909 12.1561 7.57425C12.0563 7.61941 11.9665 7.68377 11.8916 7.76366L9.32246 10.5053L8.05329 9.37783C7.88701 9.23959 7.6735 9.17141 7.45788 9.18768C7.24225 9.20394 7.04139 9.30339 6.89773 9.46501C6.75407 9.62663 6.67886 9.83776 6.68798 10.0538C6.6971 10.2699 6.78985 10.4739 6.94663 10.6228L8.82163 12.2895C8.98387 12.4336 9.19592 12.5088 9.4127 12.4989C9.62949 12.4891 9.83389 12.3952 9.98246 12.237L13.1075 8.90366H13.1083Z" fill="#1A66CD"/>
</svg>
