<svg width="10" height="16" viewBox="0 0 10 16" fill="none" xmlns="http://www.w3.org/2000/svg">
<path d="M5.82489 7.50307L5.88207 7.47598L6.04893 7.3969C6.78937 7.04497 7.47476 6.26664 7.98557 5.19256C8.48375 4.14504 8.8113 2.82522 8.86185 1.37141H1.29063C1.34072 2.81701 1.66358 4.1335 2.15553 5.18155C2.66001 6.25629 3.33755 7.03923 4.07133 7.39841C4.07135 7.39841 4.07137 7.39842 4.07138 7.39843L4.23534 7.47844L4.29148 7.50584V7.56831V8.46187V8.52434L4.23534 8.55174L4.07138 8.63175L5.82489 7.50307ZM5.82489 7.50307V7.56634M5.82489 7.50307V7.56634M5.82489 7.56634V8.46481V8.52811M5.82489 7.56634V8.52811M5.82489 8.52811L5.8821 8.55519M5.82489 8.52811L5.8821 8.55519M5.8821 8.55519L6.04896 8.63419M5.8821 8.55519L6.04896 8.63419M6.04896 8.63419C6.78936 8.98612 7.47471 9.76428 7.98551 10.8382C8.48367 11.8855 8.81123 13.2051 8.86185 14.6587H1.29064C1.34074 13.2131 1.66358 11.8967 2.15552 10.8486C2.65997 9.77392 3.33748 8.99099 4.07128 8.63181L6.04896 8.63419ZM0.595703 0.5875V0.6875H0.495797V0.979469C0.495797 2.5844 0.796055 4.07983 1.32757 5.30404C1.84893 6.50484 2.59576 7.45106 3.50652 7.97807V8.05211C2.59574 8.57912 1.8489 9.52534 1.32755 10.7261C0.796023 11.9504 0.495766 13.4458 0.495766 15.0507V15.3427V15.4427H0.595766H9.55664H9.65664V15.3427V15.0507C9.65664 13.4363 9.35129 11.9358 8.81246 10.711C8.28403 9.50979 7.52804 8.56738 6.60883 8.04845V7.98172C7.52798 7.46275 8.28397 6.52032 8.81242 5.3191C9.35125 4.09426 9.65664 2.59381 9.65664 0.979437V0.6875V0.5875H9.55664H0.695797H0.595797H0.595703ZM7.96433 3.96281V3.80349L7.82085 3.87276C6.04687 4.72916 3.98651 4.72934 2.35638 3.99951L2.15985 3.91152L2.21942 4.11844C2.66261 5.65802 3.53726 6.80835 4.60689 7.07153C4.58909 7.12224 4.5798 7.17591 4.57977 7.23037V7.23044C4.57977 7.4969 4.79603 7.71325 5.06258 7.71325C5.32913 7.71325 5.54539 7.4969 5.54539 7.23044C5.54539 7.17611 5.53623 7.1241 5.51962 7.07568C6.05168 6.94915 6.53618 6.60214 6.94223 6.10138C7.38206 5.55895 7.73428 4.83116 7.96089 3.98882L7.96433 3.97606V3.96284V3.96281ZM2.61135 14.1062L2.52164 14.2572H2.69733H7.47858H7.65496L7.56439 14.1059C7.08624 13.3069 6.65951 12.7052 6.25752 12.3034C5.856 11.9021 5.46691 11.6881 5.06528 11.693C4.66402 11.6978 4.27932 11.9207 3.88552 12.3239C3.49112 12.7277 3.07531 13.3248 2.61135 14.1062ZM5.06258 7.983C4.79604 7.983 4.57977 8.19927 4.57977 8.46581C4.57977 8.73235 4.79604 8.94862 5.06258 8.94862C5.32912 8.94862 5.54539 8.73235 5.54539 8.46581C5.54539 8.19927 5.32912 7.983 5.06258 7.983ZM5.06258 9.2105C4.79603 9.2105 4.57977 9.42684 4.57977 9.69331C4.57977 9.95989 4.79604 10.1761 5.06258 10.1761C5.32911 10.1761 5.54539 9.95989 5.54539 9.69331C5.54539 9.42684 5.32913 9.2105 5.06258 9.2105ZM5.06258 10.4459C4.79604 10.4459 4.57977 10.6622 4.57977 10.9287C4.57977 11.1952 4.79603 11.4115 5.06258 11.4115C5.32913 11.4115 5.54539 11.1952 5.54539 10.9287C5.54539 10.6622 5.32912 10.4459 5.06258 10.4459Z" fill="#FF8A00" stroke="#FF8A00" stroke-width="0.2"/>
</svg>
