<svg width="24" height="24" viewBox="0 0 24 24" fill="none" xmlns="http://www.w3.org/2000/svg">
<path d="M4.39995 13.1593C4.67262 13.154 4.93976 13.1302 5.19995 13.0894V16.8004V17.6004H5.99995H18H18.7999V16.8004V13.088C19.0642 13.1306 19.3315 13.1548 19.6 13.1603V19.9204C19.6 20.4017 19.2018 20.8004 18.7199 20.8004H5.27755C4.79769 20.8004 4.39995 20.4037 4.39995 19.9204V13.1593ZM3.91073 3.20039H7.36719L6.55719 8.5765C6.44759 9.24078 5.61087 10.0004 4.28515 10.0004C2.82356 10.0004 1.99995 9.10832 1.99995 8.40039C1.99995 8.28484 2.01742 8.17524 2.05173 8.0669L3.91073 3.20039ZM14.2852 8.40039C14.2852 9.10815 13.4606 10.0004 12 10.0004C10.5412 10.0004 9.71682 9.11039 9.71475 8.40306C9.71501 8.37312 9.71587 8.34319 9.71734 8.31329L10.2522 3.20039H13.7475L14.2813 8.31767C14.2821 8.33148 14.2827 8.34243 14.2832 8.35144C14.2846 8.37601 14.2852 8.38614 14.2852 8.40039ZM16.6327 3.20039H20.0882L21.9485 8.06476C21.9826 8.175 22 8.2854 22 8.40039C22 9.10815 21.1754 10.0004 19.7148 10.0004C18.3807 10.0004 17.5465 9.23544 17.4419 8.56916C17.4418 8.56871 17.4417 8.56827 17.4416 8.56782L16.6327 3.20039Z" stroke="white" stroke-width="1.6"/>
</svg>
