<svg width="24" height="24" viewBox="0 0 24 24" fill="none" xmlns="http://www.w3.org/2000/svg">
<path d="M12 13.5C12.8284 13.5 13.5 12.8284 13.5 12C13.5 11.1716 12.8284 10.5 12 10.5C11.1716 10.5 10.5 11.1716 10.5 12C10.5 12.8284 11.1716 13.5 12 13.5Z" fill="#1A66CD"/>
<path d="M3.25955 6.04887C3.54262 5.90301 3.85235 5.81611 4.16999 5.79342C4.48762 5.77074 4.80656 5.81273 5.1075 5.91687C5.43516 6.02715 5.7848 6.05573 6.12602 6.00014C6.46725 5.94454 6.78973 5.80646 7.06545 5.59788L7.20844 5.48788C7.45802 5.28874 7.65973 5.03613 7.7987 4.74866C7.93767 4.4612 8.01037 4.14622 8.01142 3.82693L3.25955 6.04887ZM3.25955 6.04887C2.96481 6.19515 2.70334 6.40052 2.49139 6.65221M3.25955 6.04887L2.49139 6.65221M2.49139 6.65221C2.27945 6.90389 2.12157 7.1965 2.02758 7.51183L2.49139 6.65221ZM21.2943 7.59063L21.2963 7.59743L21.2984 7.60419L22.1668 10.3744C22.1669 10.3747 22.167 10.3751 22.1672 10.3754C22.309 10.8327 22.2676 11.3271 22.0517 11.7545C21.8357 12.1821 21.4619 12.5091 21.0092 12.6661L21.0073 12.6668L20.7929 12.7418C20.7919 12.7422 20.7909 12.7425 20.79 12.7429C20.3564 12.8913 19.9654 13.1429 19.6505 13.4759C19.3361 13.8086 19.1071 14.2125 18.9831 14.6531C18.8647 15.0589 18.8349 15.4855 18.8958 15.9039C18.9569 16.3239 19.1079 16.7258 19.3385 17.0821L19.3437 17.0902L19.3491 17.0981L19.6351 17.5161L19.6365 17.5181C19.9071 17.9109 20.0172 18.3923 19.9443 18.8636C19.8716 19.333 19.6229 19.757 19.2488 20.0495L17.0216 21.7171L17.0216 21.7171L17.0156 21.7217C16.8298 21.8638 16.6168 21.9663 16.3899 22.0231C16.163 22.0798 15.9268 22.0894 15.696 22.0514C15.4652 22.0134 15.2446 21.9286 15.0479 21.8022C14.8511 21.6757 14.6822 21.5103 14.5518 21.3162L14.547 21.309L14.542 21.3019L14.4155 21.1227C14.1657 20.7507 13.8264 20.4474 13.4288 20.2406C13.0279 20.0321 12.5806 19.9286 12.1289 19.9397L12.1279 19.9397C11.7002 19.9508 11.281 20.0623 10.9043 20.2651C10.5276 20.468 10.2038 20.7565 9.95911 21.1075L9.95906 21.1076L9.70606 21.4706L9.69718 21.4834L9.68883 21.4965C9.56292 21.6941 9.39805 21.864 9.20429 21.9958C9.02035 22.1209 8.81405 22.2092 8.59678 22.256C8.51412 22.2621 8.43107 22.2611 8.34854 22.253L8.3076 22.249L8.26646 22.2495C7.89728 22.2539 7.53648 22.1397 7.23709 21.9239L4.96674 20.2019L4.96675 20.2019L4.96298 20.1991C4.5711 19.9057 4.31091 19.4695 4.23901 18.9853C4.16711 18.5011 4.28932 18.008 4.57905 17.6135L4.58751 17.602L4.59552 17.5901C4.86298 17.1952 5.03296 16.7425 5.0915 16.2691C5.15003 15.7957 5.09546 15.3152 4.93225 14.867L4.93228 14.867L4.92977 14.8603L4.87416 14.712C4.75507 14.3065 4.54451 13.9336 4.25852 13.6221C3.96471 13.3021 3.59957 13.0558 3.19274 12.9034L3.06547 12.8557H2.92955H2.88715C2.47932 12.6899 2.14386 12.3816 1.94478 11.9861C1.72879 11.557 1.69078 11.0601 1.839 10.6032L1.83903 10.6032L1.84087 10.5973L2.74285 7.73742L2.74294 7.73744L2.74633 7.72607C2.81092 7.50937 2.91942 7.30827 3.06508 7.13531C3.21073 6.96234 3.39042 6.8212 3.59297 6.72068L3.59301 6.72075L3.60306 6.71557C3.79595 6.61619 4.00699 6.55698 4.22342 6.54152C4.43986 6.52606 4.65718 6.55467 4.86223 6.62563L4.86222 6.62566L4.86827 6.6277C5.31169 6.77693 5.78485 6.81561 6.24662 6.74038C6.7084 6.66514 7.14481 6.47827 7.51793 6.19601L7.51794 6.19603L7.52273 6.19235L7.66573 6.08235L7.6658 6.08244L7.67622 6.07413C8.01352 5.80499 8.28612 5.46359 8.47393 5.0751C8.66175 4.68661 8.75999 4.26092 8.76142 3.82941H8.76142V3.82693V3.56293H8.76143L8.76141 3.55964C8.75933 3.0844 8.94506 2.62758 9.27819 2.28864C9.61028 1.95075 10.062 1.75728 10.5356 1.75H13.3342C13.5625 1.75074 13.7885 1.79651 13.9991 1.88471C14.2096 1.97287 14.4007 2.10168 14.5614 2.26375C14.9058 2.61451 15.097 3.08753 15.0932 3.57912L15.0932 3.57912V3.58493V3.88664C15.0867 4.30491 15.178 4.71897 15.3598 5.09578C15.5427 5.47486 15.8121 5.80564 16.1464 6.06146L16.1536 6.06704L16.1611 6.07244L16.278 6.15747C16.6205 6.41316 17.0196 6.58267 17.4415 6.65167C17.8646 6.72084 18.2981 6.68691 18.7052 6.55275C18.706 6.55249 18.7068 6.55224 18.7075 6.55198L19.077 6.43246L19.077 6.43248L19.0821 6.43078C19.3034 6.35744 19.5372 6.32941 19.7695 6.34836C20.0018 6.36732 20.228 6.43287 20.4344 6.54111C20.6409 6.64936 20.8234 6.79807 20.9711 6.97839C21.1189 7.1587 21.2288 7.36692 21.2943 7.59063ZM9.44875 15.8244C10.2052 16.3298 11.0945 16.5996 12.0043 16.5996C13.2243 16.5996 14.3943 16.115 15.2569 15.2523C16.1196 14.3897 16.6042 13.2197 16.6042 11.9997C16.6042 11.0899 16.3344 10.2006 15.829 9.44415C15.3236 8.6877 14.6051 8.09811 13.7646 7.74996C12.9241 7.4018 11.9992 7.31071 11.1069 7.4882C10.2146 7.66569 9.39501 8.10379 8.7517 8.74709C8.10839 9.3904 7.67029 10.21 7.4928 11.1023C7.31532 11.9946 7.40641 12.9195 7.75456 13.76C8.10272 14.6005 8.6923 15.3189 9.44875 15.8244Z" stroke="#1A66CD" stroke-width="1.5"/>
</svg>
