<svg width="16" height="17" viewBox="0 0 16 17" fill="none" xmlns="http://www.w3.org/2000/svg">
<path d="M4.08255 8.60034L2.53255 7.93368C2.31033 7.84479 2.17989 7.68368 2.14122 7.45034C2.10211 7.21701 2.16589 7.01701 2.33255 6.85034L4.43255 4.75034C4.58811 4.59479 4.77144 4.48368 4.98255 4.41701C5.19366 4.35034 5.41033 4.33923 5.63255 4.38368L6.49922 4.56701C5.91033 5.26701 5.441 5.90323 5.09122 6.47568C4.741 7.04768 4.40477 7.7559 4.08255 8.60034ZM13.8826 2.10034C13.9714 2.10034 14.0603 2.12257 14.1492 2.16701C14.2381 2.21145 14.3159 2.26701 14.3826 2.33368C14.4492 2.40034 14.5048 2.47812 14.5492 2.56701C14.5937 2.6559 14.6159 2.74479 14.6159 2.83368C14.6603 3.86701 14.441 4.93923 13.9579 6.05034C13.4743 7.16145 12.7937 8.1559 11.9159 9.03368C11.3159 9.63368 10.7381 10.1141 10.1826 10.475C9.627 10.8363 8.97144 11.1781 8.21589 11.5003C8.07144 11.5559 7.92433 11.5837 7.77455 11.5837C7.62433 11.5837 7.49366 11.5281 7.38255 11.417L5.29922 9.33368C5.18811 9.22257 5.13255 9.0919 5.13255 8.94168C5.13255 8.7919 5.16033 8.64479 5.21589 8.50034C5.53811 7.7559 5.87989 7.10301 6.24122 6.54168C6.60211 5.98079 7.08255 5.40034 7.68255 4.80034C8.56033 3.92257 9.55477 3.2419 10.6659 2.75834C11.777 2.27523 12.8492 2.0559 13.8826 2.10034ZM9.64922 7.06701C9.90477 7.32257 10.2188 7.45034 10.5912 7.45034C10.9632 7.45034 11.277 7.32257 11.5326 7.06701C11.7881 6.81145 11.9159 6.49745 11.9159 6.12501C11.9159 5.75301 11.7881 5.43923 11.5326 5.18368C11.277 4.92812 10.9632 4.80034 10.5912 4.80034C10.2188 4.80034 9.90477 4.92812 9.64922 5.18368C9.39366 5.43923 9.26589 5.75301 9.26589 6.12501C9.26589 6.49745 9.39366 6.81145 9.64922 7.06701ZM8.11589 12.6337C8.96033 12.3115 9.67144 11.9755 10.2492 11.6257C10.827 11.2755 11.4659 10.8059 12.1659 10.217L12.3326 11.0837C12.377 11.3059 12.3659 11.5255 12.2992 11.7423C12.2326 11.9588 12.1214 12.1448 11.9659 12.3003L9.86589 14.4003C9.69922 14.567 9.49922 14.6281 9.26589 14.5837C9.03255 14.5392 8.87144 14.4059 8.78255 14.1837L8.11589 12.6337ZM2.69922 11.2003C3.08811 10.8115 3.56033 10.6141 4.11589 10.6083C4.67144 10.603 5.14366 10.7948 5.53255 11.1837C5.92144 11.5726 6.11589 12.0448 6.11589 12.6003C6.11589 13.1559 5.92144 13.6281 5.53255 14.017C5.25477 14.2948 4.791 14.5337 4.14122 14.7337C3.491 14.9337 2.59366 15.1115 1.44922 15.267C1.60477 14.1226 1.78255 13.2281 1.98255 12.5837C2.18255 11.9392 2.42144 11.4781 2.69922 11.2003Z" fill="#1A66CD"/>
</svg>
