<svg width="24" height="24" viewBox="0 0 24 24" fill="none" xmlns="http://www.w3.org/2000/svg">
<path d="M9.40573 5.52129L8.94664 5.71144L9.40572 5.52128C9.34286 5.36951 9.25071 5.23161 9.13455 5.11545L8.78223 5.46777L9.13455 5.11545C9.01839 4.99929 8.88049 4.90714 8.72872 4.84428L8.53737 5.30622L8.72872 4.84428C8.57694 4.78141 8.41428 4.74905 8.25 4.74905C8.08572 4.74905 7.92305 4.78141 7.77128 4.84428C7.61951 4.90714 7.48161 4.99929 7.36545 5.11545L1.36589 11.115C1.36583 11.1151 1.36576 11.1151 1.36569 11.1152C1.24938 11.2313 1.15709 11.3691 1.09411 11.5209C1.03109 11.6728 0.998657 11.8356 0.998657 12C0.998657 12.1644 1.03109 12.3272 1.09411 12.4791L1.55332 12.2885L1.09411 12.4791C1.15711 12.6309 1.24943 12.7688 1.3658 12.8849C1.36583 12.8849 1.36586 12.885 1.36589 12.885L7.36545 18.8846L7.719 18.531L7.36545 18.8846C7.48161 19.0007 7.61951 19.0929 7.77128 19.1557C7.92306 19.2186 8.08572 19.2509 8.25 19.2509C8.41427 19.2509 8.57694 19.2186 8.72872 19.1557C8.88049 19.0929 9.01839 19.0007 9.13455 18.8846L8.781 18.531L9.13455 18.8846C9.25071 18.7684 9.34286 18.6305 9.40572 18.4787C9.46859 18.3269 9.50095 18.1643 9.50095 18C9.50095 17.8357 9.46859 17.6731 9.40573 17.5213C9.34286 17.3695 9.25071 17.2316 9.13455 17.1154L9.1345 17.1154L5.26788 13.25H21.75C22.0815 13.25 22.3995 13.1183 22.6339 12.8839C22.8683 12.6495 23 12.3315 23 12C23 11.6685 22.8683 11.3505 22.6339 11.1161C22.3995 10.8817 22.0815 10.75 21.75 10.75H5.26788L9.1345 6.88461L9.13455 6.88455C9.25071 6.76839 9.34286 6.63049 9.40572 6.47872L8.94378 6.28738L9.40573 6.47872C9.46859 6.32695 9.50095 6.16428 9.50095 6C9.50095 5.83572 9.46859 5.67306 9.40573 5.52129Z" fill="#404040" stroke="#404040"/>
</svg>
