<svg width="18" height="17" viewBox="0 0 18 17" fill="none" xmlns="http://www.w3.org/2000/svg">
<path d="M10.9655 1.977C10.4603 1.025 9.7728 0.5 9.02948 0.5C8.28617 0.5 7.59817 1.025 7.09303 1.977L1.48434 12.5435C0.972342 13.517 0.917485 14.528 1.33348 15.3165C1.72937 16.0665 2.50606 16.498 3.4656 16.5H14.5934C15.5543 16.498 16.3323 16.068 16.7269 15.3195C17.1406 14.536 17.0848 13.529 16.5737 12.557L10.9655 1.977ZM16.3314 15.0695C16.0201 15.6595 15.3865 15.9985 14.5925 16H3.46606C2.67474 15.9985 2.04206 15.658 1.72937 15.0665C1.39703 14.4365 1.45234 13.608 1.88023 12.7935L7.48846 2.228C7.90857 1.436 8.45577 1 9.02948 1C9.6032 1 10.1504 1.436 10.5701 2.228L16.1783 12.8065C16.6057 13.6195 16.6615 14.4445 16.3314 15.0695Z" fill="#074DAD" stroke="#074DAD"/>
<path d="M9.02948 10.5C9.0901 10.5 9.14824 10.4737 9.1911 10.4268C9.23397 10.3799 9.25805 10.3163 9.25805 10.25V5.25C9.25805 5.1837 9.23397 5.12011 9.1911 5.07322C9.14824 5.02634 9.0901 5 9.02948 5C8.96886 5 8.91072 5.02634 8.86786 5.07322C8.82499 5.12011 8.80091 5.1837 8.80091 5.25V10.25C8.80091 10.3163 8.82499 10.3799 8.86786 10.4268C8.91072 10.4737 8.96886 10.5 9.02948 10.5ZM9.00022 11.75C8.49599 11.75 8.08594 12.1985 8.08594 12.75C8.08594 13.3015 8.49599 13.75 9.00022 13.75C9.50445 13.75 9.91451 13.3015 9.91451 12.75C9.91451 12.1985 9.50445 11.75 9.00022 11.75ZM9.00022 13.25C8.88252 13.2442 8.77138 13.189 8.68995 13.0959C8.60852 13.0028 8.56307 12.8789 8.56307 12.75C8.56307 12.6211 8.60852 12.4972 8.68995 12.4041C8.77138 12.311 8.88252 12.2558 9.00022 12.25C9.11793 12.2558 9.22907 12.311 9.3105 12.4041C9.39193 12.4972 9.43737 12.6211 9.43737 12.75C9.43737 12.8789 9.39193 13.0028 9.3105 13.0959C9.22907 13.189 9.11793 13.2442 9.00022 13.25Z" fill="#074DAD" stroke="#074DAD"/>
</svg>
