<svg width="30" height="30" viewBox="0 0 30 30" fill="none" xmlns="http://www.w3.org/2000/svg">
<path d="M15 29C22.732 29 29 22.732 29 15C29 7.26801 22.732 1 15 1C7.26801 1 1 7.26801 1 15C1 22.732 7.26801 29 15 29Z" stroke="white"/>
<path d="M14.272 19.1392L14.2605 15.6129H12.7605V14.1016H14.2605V13.0941C14.2605 11.7344 15.0963 11.0791 16.3002 11.0791C16.8769 11.0791 17.3725 11.1224 17.517 11.1417V12.5627L16.682 12.5631C16.0272 12.5631 15.9004 12.8766 15.9004 13.3366V14.1016H17.7605L17.2605 15.6129H15.9004V19.1392H14.272Z" fill="white"/>
</svg>
