<svg width="30" height="30" viewBox="0 0 30 30" fill="none" xmlns="http://www.w3.org/2000/svg">
<path fill-rule="evenodd" clip-rule="evenodd" d="M14.4763 13.323H15.7143V13.9397C15.8927 13.585 16.35 13.2663 17.037 13.2663C18.354 13.2663 18.6667 13.9723 18.6667 15.2677V17.6667H17.3333V15.5627C17.3333 14.825 17.155 14.409 16.701 14.409C16.0713 14.409 15.8097 14.8573 15.8097 15.5623V17.6667H14.4763V13.323ZM12.19 17.61H13.5233V13.2663H12.19V17.61ZM13.7143 11.85C13.7144 11.9618 13.6922 12.0724 13.6491 12.1755C13.606 12.2786 13.5429 12.3722 13.4633 12.4507C13.3021 12.6109 13.0839 12.7006 12.8567 12.7C12.6298 12.6998 12.4121 12.6104 12.2507 12.451C12.1714 12.3722 12.1085 12.2786 12.0654 12.1755C12.0224 12.0723 12.0002 11.9617 12 11.85C12 11.6243 12.09 11.4083 12.251 11.249C12.4123 11.0894 12.6301 10.9999 12.857 11C13.0843 11 13.3023 11.0897 13.4633 11.249C13.624 11.4083 13.7143 11.6243 13.7143 11.85Z" fill="white"/>
<path d="M15 29C22.732 29 29 22.732 29 15C29 7.26801 22.732 1 15 1C7.26801 1 1 7.26801 1 15C1 22.732 7.26801 29 15 29Z" stroke="white"/>
</svg>
