<svg width="96" height="80" viewBox="0 0 96 80" fill="none" xmlns="http://www.w3.org/2000/svg">
<path d="M75.5 10C81.3 10 86 14.7 86 20.5V59.5C86 65.3 81.3 70 75.5 70H20.5C17.7152 70 15.0445 68.8938 13.0754 66.9246C11.1062 64.9555 10 62.2848 10 59.5V20.5C10 14.7 14.7 10 20.5 10H75.5ZM81 28.702L49.204 46.19C48.8769 46.3699 48.5136 46.4742 48.1408 46.4953C47.7681 46.5164 47.3954 46.4538 47.05 46.312L46.796 46.192L15 28.7V59.5C15 60.9587 15.5795 62.3576 16.6109 63.3891C17.6424 64.4205 19.0413 65 20.5 65H75.5C76.9587 65 78.3576 64.4205 79.3891 63.3891C80.4205 62.3576 81 60.9587 81 59.5V28.702ZM75.5 15H20.5C19.0413 15 17.6424 15.5795 16.6109 16.6109C15.5795 17.6424 15 19.0413 15 20.5V22.998L48 41.146L81 22.996V20.5C81 19.0413 80.4205 17.6424 79.3891 16.6109C78.3576 15.5795 76.9587 15 75.5 15Z" fill="#404040" fill-opacity="0.6"/>
</svg>
