<svg width="77" height="76" viewBox="0 0 77 76" fill="none" xmlns="http://www.w3.org/2000/svg">
<path fill-rule="evenodd" clip-rule="evenodd" d="M15.1664 9.5C14.5679 9.5 14.0343 9.91483 13.8285 10.5387L10.1742 21.6394C10.0588 21.9905 9.99999 22.3576 10 22.7272V27.1431C10 29.64 11.8224 31.6667 14.0708 31.6667C16.3191 31.6667 18.1431 29.64 18.1431 27.1431C18.1431 29.6416 19.9655 31.6667 22.2138 31.6667C24.4622 31.6667 26.2862 29.64 26.2862 27.1431C26.2862 29.6416 28.1086 31.6667 30.3569 31.6667C32.6053 31.6667 34.4261 29.6432 34.4293 27.1462C34.4293 29.6432 36.2517 31.6667 38.5 31.6667C40.7483 31.6667 42.5708 29.64 42.5708 27.1431C42.5708 29.6416 44.3947 31.6667 46.6431 31.6667C48.8914 31.6667 50.7123 29.6432 50.7138 27.1462C50.7154 29.6432 52.5378 31.6667 54.7862 31.6667C57.0345 31.6667 58.8569 29.64 58.8569 27.1431C58.8569 29.6416 60.6793 31.6667 62.9293 31.6667C65.1776 31.6667 67 29.64 67 27.1431V22.7272C67 22.3576 66.9412 21.9905 66.8258 21.6394L63.1715 10.5403C62.9657 9.91483 62.4321 9.5 61.8336 9.5H15.1664Z" fill="#404040"/>
<path fill-rule="evenodd" clip-rule="evenodd" d="M16.3333 33.6141V45.9166H12.375C12.165 45.9166 11.9637 46 11.8152 46.1485C11.6667 46.2969 11.5833 46.4983 11.5833 46.7083V48.2916C11.5833 48.5015 11.6667 48.7029 11.8152 48.8514C11.9637 48.9998 12.165 49.0833 12.375 49.0833H64.625C64.8349 49.0833 65.0363 48.9998 65.1848 48.8514C65.3332 48.7029 65.4166 48.5015 65.4166 48.2916V46.7083C65.4166 46.4983 65.3332 46.2969 65.1848 46.1485C65.0363 46 64.8349 45.9166 64.625 45.9166H60.6666V33.6141C60.0038 33.3499 59.3916 32.9734 58.8569 32.501C58.4464 32.863 57.9902 33.1696 57.5 33.413V45.9166H19.5V33.413C19.0097 33.1696 18.5535 32.863 18.1431 32.501C17.6111 32.9681 17.0031 33.3481 16.3333 33.6141ZM57.5 30.5155C57.6346 30.3809 57.7612 30.2368 57.88 30.0833H57.5V30.5155ZM59.8338 30.0833C60.0732 30.3934 60.3533 30.6698 60.6666 30.905V30.0833H59.8338ZM16.3333 30.905C16.6482 30.6716 16.9286 30.395 17.1661 30.0833H16.3333V30.905ZM19.12 30.0833H19.5V30.5155C19.364 30.3799 19.237 30.2355 19.12 30.0833ZM13.9583 52.2499C13.7483 52.2499 13.547 52.3333 13.3985 52.4818C13.2501 52.6303 13.1666 52.8316 13.1666 53.0416V64.9166C13.1666 65.3365 13.3335 65.7392 13.6304 66.0362C13.9273 66.3331 14.3301 66.4999 14.75 66.4999H62.25C62.6699 66.4999 63.0726 66.3331 63.3696 66.0362C63.6665 65.7392 63.8333 65.3365 63.8333 64.9166V53.0416C63.8333 52.8316 63.7499 52.6303 63.6014 52.4818C63.453 52.3333 63.2516 52.2499 63.0416 52.2499H13.9583Z" fill="#404040"/>
<path d="M28.2084 41.1667H23.4584C23.0211 41.1667 22.6667 41.5212 22.6667 41.9584V45.1251C22.6667 45.5623 23.0211 45.9167 23.4584 45.9167H28.2084C28.6456 45.9167 29 45.5623 29 45.1251V41.9584C29 41.5212 28.6456 41.1667 28.2084 41.1667Z" fill="#404040"/>
<path d="M31.375 42.75H26.625C26.1878 42.75 25.8333 43.1044 25.8333 43.5417V45.125C25.8333 45.5622 26.1878 45.9167 26.625 45.9167H31.375C31.8122 45.9167 32.1666 45.5622 32.1666 45.125V43.5417C32.1666 43.1044 31.8122 42.75 31.375 42.75Z" fill="#404040"/>
<path d="M36.125 45.9167C37.4367 45.9167 38.5 44.8534 38.5 43.5417C38.5 42.2301 37.4367 41.1667 36.125 41.1667C34.8133 41.1667 33.75 42.2301 33.75 43.5417C33.75 44.8534 34.8133 45.9167 36.125 45.9167Z" fill="#404040"/>
</svg>
