<svg width="24" height="25" viewBox="0 0 24 25" fill="none" xmlns="http://www.w3.org/2000/svg">
<path d="M16.064 8.81543C16.064 8.7123 15.9797 8.62793 15.8765 8.62793L14.3297 8.63496L12 11.4123L9.67263 8.63731L8.12341 8.63027C8.02029 8.63027 7.93591 8.7123 7.93591 8.81777C7.93591 8.8623 7.95232 8.90449 7.98044 8.93965L11.0297 12.5725L7.98044 16.2029C7.95212 16.2373 7.93641 16.2803 7.93591 16.3248C7.93591 16.4279 8.02029 16.5123 8.12341 16.5123L9.67263 16.5053L12 13.7279L14.3273 16.5029L15.8742 16.51C15.9773 16.51 16.0617 16.4279 16.0617 16.3225C16.0617 16.2779 16.0453 16.2357 16.0172 16.2006L12.9726 12.5701L16.0219 8.93731C16.05 8.90449 16.064 8.85996 16.064 8.81543Z" fill="#404040"/>
<path d="M12 2.02344C6.20156 2.02344 1.5 6.725 1.5 12.5234C1.5 18.3219 6.20156 23.0234 12 23.0234C17.7984 23.0234 22.5 18.3219 22.5 12.5234C22.5 6.725 17.7984 2.02344 12 2.02344ZM12 21.2422C7.18594 21.2422 3.28125 17.3375 3.28125 12.5234C3.28125 7.70938 7.18594 3.80469 12 3.80469C16.8141 3.80469 20.7188 7.70938 20.7188 12.5234C20.7188 17.3375 16.8141 21.2422 12 21.2422Z" fill="#404040"/>
</svg>
