<svg width="30" height="30" viewBox="0 0 30 30" fill="none" xmlns="http://www.w3.org/2000/svg">
<path d="M15 29C22.732 29 29 22.732 29 15C29 7.26801 22.732 1 15 1C7.26801 1 1 7.26801 1 15C1 22.732 7.26801 29 15 29Z" stroke="white"/>
<path d="M19.0801 12.3958C18.7801 12.5469 18.4801 12.5973 18.1301 12.6476C18.4801 12.4461 18.7301 12.1439 18.8301 11.7409C18.5301 11.9424 18.1801 12.0431 17.7801 12.1439C17.4801 11.8416 17.0301 11.6401 16.5801 11.6401C15.7301 11.6401 14.9801 12.3958 14.9801 13.3025C14.9801 13.4537 14.9801 13.5544 15.0301 13.6552C13.6801 13.6048 12.4301 12.9499 11.6301 11.9424C11.4801 12.1943 11.4301 12.4461 11.4301 12.7988C11.4301 13.3529 11.7301 13.8567 12.1801 14.1589C11.9301 14.1589 11.6801 14.0582 11.4301 13.9574C11.4301 14.7634 11.9801 15.4183 12.7301 15.5694C12.5801 15.6198 12.4301 15.6198 12.2801 15.6198C12.1801 15.6198 12.0801 15.6198 11.9801 15.5694C12.1801 16.2243 12.7801 16.7281 13.5301 16.7281C12.9801 17.1814 12.2801 17.4333 11.4801 17.4333C11.3301 17.4333 11.2301 17.4333 11.0801 17.4333C11.8301 17.8867 12.6801 18.189 13.5801 18.189C16.5801 18.189 18.2301 15.6702 18.2301 13.504C18.2301 13.4537 18.2301 13.3529 18.2301 13.3025C18.5801 13.0507 18.8801 12.7484 19.0801 12.3958Z" fill="white"/>
</svg>
