<svg width="20" height="20" viewBox="0 0 20 20" fill="none" xmlns="http://www.w3.org/2000/svg">
<path d="M10.7692 18.0409L18.4615 13.8462V6.20192L10.7692 9.0024V18.0409ZM10 7.64423L18.3894 4.59135L10 1.53846L1.61058 4.59135L10 7.64423ZM20 4.61538V13.8462C20 14.1266 19.9279 14.387 19.7837 14.6274C19.6394 14.8678 19.4431 15.0561 19.1947 15.1923L10.7332 19.8077C10.5088 19.9359 10.2644 20 10 20C9.73558 20 9.49119 19.9359 9.26683 19.8077L0.805288 15.1923C0.556891 15.0561 0.360577 14.8678 0.216346 14.6274C0.0721154 14.387 0 14.1266 0 13.8462V4.61538C0 4.29487 0.0921474 4.0024 0.276442 3.73798C0.460737 3.47356 0.705128 3.28526 1.00962 3.17308L9.47115 0.0961538C9.64744 0.0320513 9.82372 0 10 0C10.1763 0 10.3526 0.0320513 10.5288 0.0961538L18.9904 3.17308C19.2949 3.28526 19.5393 3.47356 19.7236 3.73798C19.9079 4.0024 20 4.29487 20 4.61538Z" fill="#1A66CD"/>
</svg>
