<svg width="20" height="20" viewBox="0 0 20 20" fill="none" xmlns="http://www.w3.org/2000/svg">
<path d="M4 4.1275V13.75C3.99985 14.7021 4.36185 15.6186 5.01256 16.3136C5.66327 17.0086 6.55397 17.43 7.504 17.4925L7.75 17.5H14.371C14.2159 17.9386 13.9287 18.3184 13.5488 18.587C13.169 18.8557 12.7152 18.9999 12.25 19H7C5.80653 19 4.66193 18.5259 3.81802 17.682C2.97411 16.8381 2.5 15.6935 2.5 14.5V6.25C2.49976 5.78451 2.64389 5.3304 2.91254 4.95026C3.18119 4.57012 3.56113 4.28266 4 4.1275ZM15.25 1C15.8467 1 16.419 1.23705 16.841 1.65901C17.2629 2.08097 17.5 2.65326 17.5 3.25V13.75C17.5 14.3467 17.2629 14.919 16.841 15.341C16.419 15.7629 15.8467 16 15.25 16H7.75C7.15326 16 6.58097 15.7629 6.15901 15.341C5.73705 14.919 5.5 14.3467 5.5 13.75V3.25C5.5 2.65326 5.73705 2.08097 6.15901 1.65901C6.58097 1.23705 7.15326 1 7.75 1H15.25Z" fill="#1A66CD"/>
</svg>
