<svg width="24" height="16" viewBox="0 0 24 16" fill="none" xmlns="http://www.w3.org/2000/svg">
<path fill-rule="evenodd" clip-rule="evenodd" d="M22.4994 8.00095C22.4994 7.80203 22.4204 7.61127 22.2797 7.47062C22.1391 7.32996 21.9483 7.25095 21.7494 7.25095H4.05989L8.78039 2.53195C8.85012 2.46222 8.90544 2.37943 8.94317 2.28832C8.98091 2.19721 9.00034 2.09956 9.00034 2.00095C9.00034 1.90233 8.98091 1.80468 8.94317 1.71357C8.90544 1.62246 8.85012 1.53968 8.78039 1.46995C8.71066 1.40022 8.62787 1.3449 8.53676 1.30716C8.44566 1.26942 8.348 1.25 8.24939 1.25C8.15077 1.25 8.05312 1.26942 7.96201 1.30716C7.8709 1.3449 7.78812 1.40022 7.71839 1.46995L1.71839 7.46995C1.64854 7.53961 1.59313 7.62238 1.55532 7.7135C1.51751 7.80461 1.49805 7.9023 1.49805 8.00095C1.49805 8.0996 1.51751 8.19728 1.55532 8.2884C1.59313 8.37951 1.64854 8.46228 1.71839 8.53195L7.71839 14.5319C7.78812 14.6017 7.8709 14.657 7.96201 14.6947C8.05312 14.7325 8.15077 14.7519 8.24939 14.7519C8.348 14.7519 8.44566 14.7325 8.53676 14.6947C8.62787 14.657 8.71066 14.6017 8.78039 14.5319C8.85012 14.4622 8.90544 14.3794 8.94317 14.2883C8.98091 14.1972 9.00034 14.0996 9.00034 14.0009C9.00034 13.9023 8.98091 13.8047 8.94317 13.7136C8.90544 13.6225 8.85012 13.5397 8.78039 13.4699L4.05989 8.75095H21.7494C21.9483 8.75095 22.1391 8.67193 22.2797 8.53128C22.4204 8.39062 22.4994 8.19986 22.4994 8.00095Z" fill="#404040" fill-opacity="0.6"/>
<path d="M9.40511 1.52223L8.94603 1.71239L9.40511 1.52223C9.34225 1.37046 9.2501 1.23256 9.13394 1.11639L8.78162 1.46872L9.13394 1.11639C9.01778 1.00023 8.87988 0.908089 8.72811 0.845223L8.53676 1.30716L8.72811 0.845223C8.57633 0.782357 8.41367 0.75 8.24939 0.75C8.08511 0.75 7.92244 0.782357 7.77067 0.845223C7.6189 0.908089 7.481 1.00023 7.36484 1.11639L1.36528 7.11595C1.36522 7.11601 1.36515 7.11608 1.36508 7.11615C1.24877 7.23222 1.15648 7.37009 1.0935 7.52186C1.03048 7.67372 0.998047 7.83653 0.998047 8.00095C0.998047 8.16536 1.03048 8.32817 1.0935 8.48003L1.55271 8.28948L1.0935 8.48003C1.1565 8.63185 1.24882 8.76976 1.36519 8.88585C1.36522 8.88588 1.36525 8.88592 1.36528 8.88595L7.36484 14.8855L7.71839 14.5319L7.36484 14.8855C7.481 15.0017 7.6189 15.0938 7.77067 15.1567C7.92244 15.2195 8.08511 15.2519 8.24939 15.2519C8.41366 15.2519 8.57633 15.2195 8.72811 15.1567C8.87988 15.0938 9.01778 15.0017 9.13394 14.8855L8.78039 14.5319L9.13394 14.8855C9.2501 14.7693 9.34225 14.6314 9.40511 14.4797C9.46798 14.3279 9.50034 14.1652 9.50034 14.0009C9.50034 13.8367 9.46798 13.674 9.40511 13.5222C9.34225 13.3705 9.2501 13.2326 9.13394 13.1164L9.13389 13.1163L5.26727 9.25095H21.7494C22.0809 9.25095 22.3989 9.11925 22.6333 8.88483C22.8677 8.65041 22.9994 8.33246 22.9994 8.00095C22.9994 7.66943 22.8677 7.35148 22.6333 7.11706C22.3989 6.88264 22.0809 6.75095 21.7494 6.75095H5.26727L9.13389 2.88556L9.13394 2.8855C9.2501 2.76934 9.34225 2.63144 9.40511 2.47967L8.94317 2.28832L9.40511 2.47966C9.46798 2.32789 9.50034 2.16522 9.50034 2.00095C9.50034 1.83667 9.46798 1.674 9.40511 1.52223Z" stroke="#404040" stroke-opacity="0.6"/>
</svg>
