<svg width="24" height="24" viewBox="0 0 24 24" fill="none" xmlns="http://www.w3.org/2000/svg">
<path d="M6.89858 18.8317L6.90254 18.8352C8.29766 20.1016 10.1149 20.802 11.9991 20.7996L12.0011 20.7996C13.8856 20.8022 15.7033 20.1017 17.0988 18.8352L17.1031 18.8313L17.1031 18.8314C17.1279 18.8092 17.1471 18.7815 17.1592 18.7506L6.89858 18.8317ZM6.89858 18.8317C6.87372 18.8094 6.85444 18.7816 6.84231 18.7505M6.89858 18.8317L6.84231 18.7505M6.84231 18.7505C6.8304 18.72 6.8257 18.6871 6.82857 18.6545M6.84231 18.7505L6.82857 18.6545M6.82857 18.6545C6.96155 17.3761 7.56334 16.1921 8.51786 15.3312C9.47322 14.4695 10.7141 13.9925 12.0007 13.9925C13.2872 13.9925 14.5281 14.4695 15.4835 15.3312C16.438 16.1922 17.0398 17.3762 17.1728 18.6547C17.1757 18.6873 17.171 18.7201 17.1592 18.7505L6.82857 18.6545ZM21.8103 17.699C21.4127 17.9299 20.9873 18.106 20.5457 18.2236C20.3714 16.6892 19.7872 15.2378 18.8645 14.0172C19.0603 13.9935 19.259 13.9905 19.4574 14.0087C20.0126 14.0597 20.5399 14.2753 20.9719 14.6279C21.4038 14.9806 21.7206 15.4541 21.8817 15.9879C22.0424 16.5204 22.0409 17.0888 21.8773 17.6204C21.8668 17.6524 21.8448 17.6793 21.8155 17.696L21.8155 17.696L21.8103 17.699ZM13.98 9.17951C13.4549 9.70461 12.7427 9.99961 12.0001 9.99961C11.2575 9.99961 10.5453 9.70461 10.0202 9.17951C9.49506 8.65441 9.20006 7.94222 9.20006 7.19961C9.20006 6.457 9.49506 5.74481 10.0202 5.21971C10.5453 4.69461 11.2575 4.39961 12.0001 4.39961C12.7427 4.39961 13.4549 4.69461 13.98 5.21971C14.5051 5.74481 14.8001 6.457 14.8001 7.19961C14.8001 7.94222 14.5051 8.65441 13.98 9.17951ZM6.40006 9.59961C6.40006 10.024 6.23149 10.4309 5.93143 10.731C5.63137 11.031 5.22441 11.1996 4.80006 11.1996C4.37572 11.1996 3.96875 11.031 3.66869 10.731C3.36863 10.4309 3.20006 10.024 3.20006 9.59961C3.20006 9.17526 3.36863 8.7683 3.66869 8.46824C3.96875 8.16818 4.37571 7.99961 4.80006 7.99961C5.22441 7.99961 5.63137 8.16818 5.93143 8.46824C6.23149 8.7683 6.40006 9.17526 6.40006 9.59961ZM20.8001 9.59961C20.8001 10.024 20.6315 10.4309 20.3314 10.731C20.0314 11.031 19.6244 11.1996 19.2001 11.1996C18.7757 11.1996 18.3687 11.031 18.0687 10.731C17.7686 10.4309 17.6001 10.024 17.6001 9.59961C17.6001 9.17526 17.7686 8.7683 18.0687 8.46824C18.3687 8.16818 18.7757 7.99961 19.2001 7.99961C19.6244 7.99961 20.0314 8.16818 20.3314 8.46824C20.6315 8.7683 20.8001 9.17526 20.8001 9.59961Z" stroke="white" stroke-width="1.6"/>
</svg>
