<svg width="24" height="24" viewBox="0 0 24 24" fill="none" xmlns="http://www.w3.org/2000/svg">
<path d="M17.8707 18.3822L17.88 18.3892L19.6283 19.7004C19.6903 19.7432 19.7154 19.7401 19.7409 19.7369L19.741 19.7369L17.8707 18.3822ZM17.8707 18.3822L17.8612 18.3754M17.8707 18.3822L17.8612 18.3754M17.8612 18.3754C17.8461 18.3646 17.8371 18.3565 17.8325 18.3519L17.8612 18.3754ZM19.7693 19.5561L19.76 19.5492L18.0117 18.2379C17.9497 18.1951 17.9246 18.1982 17.8991 18.2014L17.899 18.2014L19.7693 19.5561ZM19.7693 19.5561L19.7788 19.5629M19.7693 19.5561L19.7788 19.5629M19.7788 19.5629C19.7939 19.5737 19.8029 19.5818 19.8075 19.5864L19.7788 19.5629ZM17.8707 6.35614L17.8612 6.3629C17.8461 6.37373 17.8371 6.38183 17.8325 6.38642L17.8707 6.35614ZM17.8707 6.35614L17.88 6.34917M17.8707 6.35614L17.88 6.34917M17.88 6.34917L19.6284 5.0379M17.88 6.34917L19.6284 5.0379M19.7693 5.18219L19.7788 5.17543C19.7939 5.16461 19.8029 5.1565 19.8075 5.15191L19.7693 5.18219ZM19.7693 5.18219L19.76 5.18917M19.7693 5.18219L19.76 5.18917M19.76 5.18917L18.0117 6.50043M19.76 5.18917L18.0117 6.50043M5.5 19.0692V15.6692V14.6692H6.5H7.6H7.87869L8.11721 14.8133L11.937 17.1217C11.9373 17.1219 11.9377 17.1221 11.938 17.1223C11.9568 17.1335 11.9699 17.1394 11.9774 17.1423C11.9866 17.1391 12.0048 17.1319 12.032 17.1159L12.5368 17.9792M5.5 19.0692L12.0952 17.0692C12.0942 17.0704 12.0927 17.0719 12.0906 17.074C12.0828 17.0814 12.065 17.0966 12.0313 17.1164L12.5368 17.9792M5.5 19.0692H5.3V15.6692V14.6692H4.3H3.2C2.86262 14.6692 2.59889 14.5607 2.35451 14.3159L2.3533 14.3147C2.10851 14.0703 2 13.8065 2 13.4692V11.2692C2 10.9317 2.10857 10.6673 2.35391 10.422C2.59815 10.1777 2.86207 10.0692 3.2 10.0692H7.6H7.87869L8.11721 9.92503L11.937 7.61666L5.5 19.0692ZM12.5368 17.9792C12.1606 18.1992 11.7892 18.1992 11.4225 17.9792L13.1 7.72167V17.0167C13.1 17.4383 12.9123 17.7592 12.5368 17.9792ZM18.0117 6.50043C17.9497 6.54322 17.9246 6.54009 17.8991 6.5369L17.899 6.53689L18.0117 6.50043ZM19.6284 5.0379C19.6903 4.99512 19.7154 4.99825 19.7409 5.00143L19.741 5.00144L19.6284 5.0379ZM21.9773 12.444L21.9749 12.4465C21.966 12.4554 21.9604 12.4594 21.9582 12.4609C21.9561 12.4623 21.9552 12.4627 21.9546 12.4629C21.9539 12.4632 21.9505 12.4646 21.9429 12.4659C21.9352 12.4674 21.9213 12.4692 21.9 12.4692H19.7C19.6787 12.4692 19.6648 12.4674 19.6571 12.4659C19.6495 12.4646 19.6461 12.4632 19.6454 12.4629C19.6448 12.4627 19.6439 12.4623 19.6418 12.4609C19.6396 12.4594 19.634 12.4554 19.6251 12.4465L19.6227 12.444C19.6138 12.4352 19.6097 12.4295 19.6083 12.4274C19.6077 12.4265 19.6073 12.4259 19.607 12.4254C19.6066 12.4246 19.6064 12.4241 19.6062 12.4237C19.606 12.423 19.6046 12.4197 19.6032 12.4121C19.6018 12.4043 19.6 12.3905 19.6 12.3692C19.6 12.3478 19.6018 12.3339 19.6032 12.326C19.6039 12.3226 19.6045 12.3199 19.6051 12.318C19.6057 12.3157 19.6062 12.3144 19.6064 12.3139C19.6068 12.313 19.6073 12.3118 19.6089 12.3095C19.6105 12.307 19.6148 12.3011 19.6239 12.292C19.6327 12.2832 19.6383 12.2792 19.6405 12.2777C19.6413 12.2771 19.642 12.2767 19.6425 12.2764C19.6433 12.276 19.6439 12.2758 19.6443 12.2756C19.6448 12.2754 19.6462 12.2748 19.6487 12.2742C19.6506 12.2736 19.6531 12.273 19.6565 12.2724C19.6644 12.271 19.6785 12.2692 19.7 12.2692H21.9C21.9215 12.2692 21.9356 12.271 21.9436 12.2724C21.9513 12.2739 21.9549 12.2752 21.9557 12.2756C21.9565 12.2759 21.9575 12.2763 21.9595 12.2777C21.9617 12.2792 21.9673 12.2832 21.9761 12.292C21.9852 12.3011 21.9895 12.307 21.9911 12.3095C21.9927 12.3118 21.9932 12.313 21.9936 12.3139C21.994 12.3148 21.9953 12.3184 21.9968 12.326C21.9982 12.3339 22 12.3478 22 12.3692C22 12.3905 21.9982 12.4043 21.9968 12.4121C21.9954 12.4197 21.994 12.423 21.9938 12.4237C21.9935 12.4244 21.9931 12.4253 21.9917 12.4274C21.9903 12.4295 21.9862 12.4352 21.9773 12.444ZM19.7663 19.7079C19.7554 19.7231 19.7473 19.732 19.7428 19.7366L19.8077 19.5882L19.8077 19.5883C19.811 19.6147 19.8143 19.6407 19.7663 19.7079ZM17.8737 18.2304C17.8846 18.2152 17.8927 18.2063 17.8972 18.2017L17.8323 18.3501L17.8323 18.35C17.829 18.3236 17.8257 18.2976 17.8737 18.2304Z" stroke="white" stroke-width="2"/>
</svg>
