<svg width="24" height="24" viewBox="0 0 24 24" fill="none" xmlns="http://www.w3.org/2000/svg">
<path d="M10.5542 1.64523C10.8083 1.0921 10.6167 0.412416 10.1292 0.126478C9.64167 -0.159459 9.03333 0.0561657 8.77917 0.604603L4.9 8.99992H1.33333C0.595833 8.99992 0 9.67023 0 10.4999C0 11.3296 0.595833 11.9999 1.33333 11.9999L3.49583 21.7265C3.79167 23.0624 4.85833 23.9999 6.08333 23.9999H17.9167C19.1417 23.9999 20.2083 23.0624 20.5042 21.7265L22.6667 11.9999C23.4042 11.9999 24 11.3296 24 10.4999C24 9.67023 23.4042 8.99992 22.6667 8.99992H19.1L15.2208 0.604603C14.9667 0.0561657 14.3625 -0.159459 13.8708 0.126478C13.3792 0.412416 13.1917 1.0921 13.4458 1.64523L16.8458 8.99992H7.15417L10.5542 1.64523ZM8 14.2499V18.7499C8 19.1624 7.7 19.4999 7.33333 19.4999C6.96667 19.4999 6.66667 19.1624 6.66667 18.7499V14.2499C6.66667 13.8374 6.96667 13.4999 7.33333 13.4999C7.7 13.4999 8 13.8374 8 14.2499ZM12 13.4999C12.3667 13.4999 12.6667 13.8374 12.6667 14.2499V18.7499C12.6667 19.1624 12.3667 19.4999 12 19.4999C11.6333 19.4999 11.3333 19.1624 11.3333 18.7499V14.2499C11.3333 13.8374 11.6333 13.4999 12 13.4999ZM17.3333 14.2499V18.7499C17.3333 19.1624 17.0333 19.4999 16.6667 19.4999C16.3 19.4999 16 19.1624 16 18.7499V14.2499C16 13.8374 16.3 13.4999 16.6667 13.4999C17.0333 13.4999 17.3333 13.8374 17.3333 14.2499Z" fill="white"/>
</svg>
