<svg width="24" height="24" viewBox="0 0 24 24" fill="none" xmlns="http://www.w3.org/2000/svg">
<path d="M12 13.5C12.8284 13.5 13.5 12.8284 13.5 12C13.5 11.1716 12.8284 10.5 12 10.5C11.1716 10.5 10.5 11.1716 10.5 12C10.5 12.8284 11.1716 13.5 12 13.5Z" fill="white"/>
<path d="M21.5342 7.52037L21.5341 7.52039L21.537 7.5294L22.4056 10.3002C22.4056 10.3002 22.4056 10.3002 22.4056 10.3002C22.567 10.8197 22.5201 11.3816 22.2749 11.8672C22.0296 12.3528 21.6051 12.724 21.0912 12.9023L21.0899 12.9027L20.8736 12.9785C20.873 12.9787 20.8723 12.9789 20.8716 12.9792C20.4761 13.1145 20.1194 13.3439 19.8322 13.6477C19.5453 13.9512 19.3364 14.3198 19.2235 14.7219C19.1148 15.0937 19.0874 15.4845 19.1432 15.8679C19.1991 16.2523 19.3373 16.6201 19.5484 16.9463L19.5482 16.9463L19.5555 16.9569L19.8414 17.3749L19.8424 17.3763C20.1492 17.8216 20.274 18.3674 20.1913 18.9019C20.1088 19.435 19.826 19.9164 19.4007 20.2481L17.1715 21.9172L17.1715 21.9172L17.1674 21.9203C16.9545 22.0831 16.7105 22.2006 16.4505 22.2656C16.1905 22.3306 15.9199 22.3416 15.6554 22.2981C15.391 22.2546 15.1382 22.1574 14.9127 22.0125L14.6424 22.4331L14.9127 22.0125C14.6872 21.8676 14.4938 21.6781 14.3443 21.4556L14.3444 21.4555L14.3378 21.4461L14.2095 21.2644C13.9829 20.9261 13.6748 20.6503 13.3135 20.4624L13.0828 20.906L13.3135 20.4624C12.95 20.2734 12.5446 20.1796 12.135 20.1896L12.1344 20.1897C11.7458 20.1997 11.3651 20.301 11.0228 20.4852C10.6806 20.6695 10.3865 20.9317 10.1642 21.2505L10.1642 21.2506L9.91116 21.6136L9.90524 21.6221L9.89968 21.6308C9.75551 21.8571 9.56674 22.0516 9.3449 22.2025C9.12957 22.349 8.88745 22.4514 8.63253 22.5039C8.5299 22.5126 8.42669 22.5119 8.32416 22.5018L8.29687 22.4991L8.26944 22.4995C7.84571 22.5045 7.43164 22.3732 7.08836 22.1248L4.81567 20.4011L4.81315 20.3992C4.36852 20.0664 4.0733 19.5714 3.99172 19.022C3.91014 18.4726 4.04881 17.9132 4.37754 17.4655L4.38318 17.4578L4.38852 17.45C4.63381 17.0878 4.7897 16.6725 4.84339 16.2384C4.89707 15.8043 4.84702 15.3636 4.69734 14.9525L4.69736 14.9525L4.69568 14.9481L4.63679 14.791C4.52894 14.4189 4.33649 14.0767 4.07436 13.7912C3.80713 13.5001 3.47503 13.2761 3.10501 13.1375L3.02016 13.1057H2.92955H2.83991C2.35503 12.9222 1.95543 12.5632 1.72148 12.0985C1.47589 11.6106 1.43267 11.0456 1.60122 10.526L1.60245 10.5221L2.50442 7.66222L2.50448 7.66224L2.50674 7.65466C2.58114 7.40508 2.7061 7.17348 2.87385 6.97427C3.0416 6.77507 3.24855 6.61252 3.48183 6.49674L3.48186 6.49679L3.48856 6.49334C3.71151 6.37846 3.95545 6.31002 4.20561 6.29215C4.45578 6.27428 4.70697 6.30736 4.94398 6.38938L4.94398 6.3894L4.94801 6.39075C5.35285 6.527 5.78483 6.56232 6.20642 6.49363C6.62801 6.42494 7.02645 6.25434 7.3671 5.99663L7.36711 5.99665L7.3703 5.99419L7.5133 5.88419L7.51335 5.88426L7.52029 5.87871C7.82835 5.63291 8.07732 5.32111 8.24886 4.96629L7.7987 4.74866L8.24886 4.96629C8.42039 4.61147 8.51011 4.22268 8.51142 3.82858V3.82693L8.51143 3.56293L8.51142 3.56074C8.50904 3.01957 8.72055 2.49937 9.09989 2.1134C9.47851 1.72816 9.99374 1.50778 10.5338 1.5H13.3346C13.5959 1.50079 13.8546 1.55316 14.0957 1.65411L14.2888 1.19292L14.0957 1.65411C14.3367 1.75504 14.5554 1.90254 14.7393 2.08816C15.1304 2.48618 15.3476 3.02308 15.3432 3.58106L15.3432 3.58106V3.58493V3.8886C15.337 4.2686 15.4198 4.64481 15.5849 4.98714C15.7508 5.33094 15.9952 5.63093 16.2983 5.86293L16.2982 5.86305L16.3081 5.87025L16.4263 5.95622C16.737 6.18842 17.0991 6.34234 17.4819 6.40494C17.8654 6.46766 18.2584 6.43685 18.6274 6.31516C18.628 6.31497 18.6285 6.31479 18.6291 6.31461L19.0001 6.19461L19.0035 6.19348C19.2566 6.10957 19.524 6.0775 19.7898 6.09919C20.0556 6.12087 20.3143 6.19587 20.5505 6.3197C20.7867 6.44353 20.9955 6.61367 21.1645 6.81995C21.3335 7.02623 21.4593 7.26444 21.5342 7.52037ZM9.58764 15.6165C10.303 16.0945 11.144 16.3496 12.0043 16.3496C13.158 16.3496 14.2644 15.8913 15.0802 15.0756C15.8959 14.2598 16.3542 13.1534 16.3542 11.9997C16.3542 11.1394 16.0991 10.2984 15.6211 9.58304C15.1432 8.8677 14.4638 8.31016 13.669 7.98093C12.8741 7.6517 11.9995 7.56555 11.1557 7.7334C10.3119 7.90124 9.53682 8.31553 8.92847 8.92387C8.32013 9.53221 7.90584 10.3073 7.738 11.1511C7.57016 11.9949 7.6563 12.8695 7.98553 13.6643C8.31477 14.4592 8.87231 15.1385 9.58764 15.6165Z" stroke="white"/>
</svg>
